<?xml version="1.0" encoding="UTF-8"?> <svg xmlns="http://www.w3.org/2000/svg" xmlns:xlink="http://www.w3.org/1999/xlink" id="Layer_1" data-name="Layer 1" viewBox="0 0 413.78 161.09"><defs><style> .cls-1 { fill: url(#linear-gradient); } </style><linearGradient id="linear-gradient" x1="133.52" y1="152.57" x2="133.52" y2="44.9" gradientTransform="translate(0 205.63) scale(1 -1)" gradientUnits="userSpaceOnUse"><stop offset="0" stop-color="#ff5ce1"></stop><stop offset="1" stop-color="#ff7b46"></stop></linearGradient></defs><path class="cls-1" d="M189.18,99.04l-13.6-25.73-27.51,14.54v-34.79h-29.11v34.79l-27.51-14.54-13.6,25.73,32.14,16.99-21.48,26.28,22.54,18.42,22.47-27.49,22.46,27.49,22.54-18.42-21.48-26.28,32.14-16.99Z"></path><path d="M44.59,79.66c0-3.24-.66-5.74-1.99-7.5-1.32-1.91-3.09-2.87-5.3-2.87s-4.05.96-5.52,2.87c-1.32,1.77-1.99,4.27-1.99,7.5v13.46H.44v-11.69c0-11.47,3.24-20.52,9.71-27.14,6.47-6.77,15.37-10.15,26.7-10.15s20.08,3.38,26.7,10.15c6.77,6.62,10.15,15.67,10.15,27.14v77.45h-29.13v-11.03h-.88c-5.74,8.83-12.95,13.24-21.62,13.24-6.62,0-11.99-2.21-16.11-6.62-3.97-4.56-5.96-10.52-5.96-17.87v-14.34c0-7.36,2.5-13.24,7.5-17.65,5-4.41,11.7-6.62,20.08-6.62h16.99v-18.32h.02ZM44.59,112.32h-5.08c-6.77,0-10.15,2.72-10.15,8.16v9.71c0,2.5.59,4.49,1.77,5.96,1.32,1.32,3.02,1.99,5.08,1.99,3.97,0,6.77-2.21,8.39-6.62v-19.2h-.01ZM193.32,0h29.35v158.88h-29.35V0ZM228.84,20.74c0-5,1.47-8.68,4.41-11.03,2.94-2.5,6.99-3.75,12.14-3.75s9.19,1.25,12.14,3.75c2.94,2.5,4.41,6.18,4.41,11.03,0,5.15-1.47,8.97-4.41,11.47-2.79,2.35-6.77,3.53-11.92,3.53s-9.27-1.18-12.36-3.53c-2.94-2.5-4.41-6.33-4.41-11.47h0ZM260.18,46.34v112.54h-29.35V46.34s29.35,0,29.35,0ZM293.72,46.34l6.84,78.34h1.99l6.84-78.34h29.35l-16.33,112.54h-41.71l-16.33-112.54h29.35,0ZM369.19,125.34c0,3.38.66,6.03,1.99,7.94,1.32,1.76,3.16,2.65,5.52,2.65s4.19-.88,5.52-2.65c1.47-1.91,2.21-4.56,2.21-7.94v-9.05h29.35v7.5c0,11.47-3.38,20.6-10.15,27.36-6.77,6.62-15.81,9.93-27.14,9.93s-20.45-3.31-26.92-9.93c-6.47-6.77-9.71-15.89-9.71-27.36v-42.37c0-11.47,3.24-20.52,9.71-27.14,6.47-6.77,15.45-10.15,26.92-10.15s20.37,3.38,27.14,10.15c6.77,6.62,10.15,15.67,10.15,27.14v28.24h-44.57v15.67h-.02ZM369.19,93.78h15.23v-13.9c0-3.38-.74-5.96-2.21-7.72-1.32-1.91-3.16-2.87-5.52-2.87s-4.19.96-5.52,2.87c-1.32,1.77-1.99,4.34-1.99,7.72v13.9h0Z"></path></svg> 